<svg width="575" height="872" viewBox="0 0 575 872" fill="none" xmlns="http://www.w3.org/2000/svg">
<path d="M562.704 373.008C566.082 416.35 557.249 445.219 539.508 463.944C521.72 482.72 494.517 491.794 460.051 494.479C425.611 497.163 387.538 492.451 358.883 476.743C344.587 468.906 332.689 458.364 324.698 444.685C316.715 431.019 312.543 414.073 313.918 393.269C316.707 351.087 328.174 310.652 347.434 280.168C366.678 249.709 393.565 229.358 427.289 226.73C494.864 221.465 555.952 286.35 562.704 373.008Z" fill="#DBDBDB" fill-opacity="0.92" stroke="black" stroke-width="5"/>
<path d="M500.5 141.5C500.5 218.371 440.853 280.5 367.5 280.5C294.147 280.5 234.5 218.371 234.5 141.5C234.5 64.6292 294.147 2.5 367.5 2.5C440.853 2.5 500.5 64.6292 500.5 141.5Z" fill="white" stroke="black" stroke-width="5"/>
<path fill-rule="evenodd" clip-rule="evenodd" d="M466.499 192.787C450.238 209.91 422.973 226.558 390.013 237.808C341.714 254.295 296.005 254.133 275.578 239.367C295.916 255.273 341.882 263.887 389.723 247.557C426.465 235.015 453.216 213.119 466.499 192.787ZM267.438 230.533C266.732 229.283 266.143 227.976 265.678 226.613C265.138 225.031 264.776 223.409 264.585 221.753C264.713 223.395 265.041 225.001 265.574 226.565C266.032 227.905 266.656 229.23 267.438 230.533Z" fill="black"/>
<ellipse cx="270.901" cy="199.789" rx="4" ry="13.5" transform="rotate(-12.7187 270.901 199.789)" fill="black"/>
<ellipse cx="288.447" cy="198.078" rx="4" ry="13.5" transform="rotate(-15.4264 288.447 198.078)" fill="black"/>
<path d="M392 493C338.488 620.869 339.89 715.797 392 816.5" stroke="black" stroke-width="5" stroke-linecap="round"/>
<path d="M295.49 834.758C335.584 818.334 400.367 815.541 438.09 824.208" stroke="black" stroke-width="5"/>
<path d="M515 455.008C419.813 578.709 432.5 757.453 528.5 854" stroke="black" stroke-width="5" stroke-linecap="round"/>
<path d="M415.021 858.957C456.57 846.262 521.304 850.153 557.958 863" stroke="black" stroke-width="5"/>
<path d="M3 422L3 826" stroke="black" stroke-width="5" stroke-linecap="round"/>
<path d="M229 493L229 869" stroke="black" stroke-width="5" stroke-linecap="round"/>
<path d="M383 489V869" stroke="black" stroke-width="5" stroke-linecap="round"/>
<path d="M158 421L158 826" stroke="black" stroke-width="5" stroke-linecap="round"/>
<line x1="231.298" y1="491.399" x2="2.29801" y2="424.399" stroke="black" stroke-width="5"/>
<line x1="229" y1="490.5" x2="382" y2="490.5" stroke="black" stroke-width="5"/>
<path d="M3 422L154 419" stroke="black" stroke-width="5" stroke-linecap="round"/>
<path d="M155 419L382.811 490.635" stroke="black" stroke-width="5" stroke-linecap="round"/>
<path d="M11 424L157 420.5L371 489H229L11 424Z" fill="white"/>
<path d="M229 869L382.984 869.5" stroke="black" stroke-width="5" stroke-linecap="round"/>
<path d="M3 826H158" stroke="black" stroke-width="5" stroke-linecap="round"/>
<rect x="231" y="493" width="150" height="375" fill="#C8C7C7" fill-opacity="0.37"/>
<path d="M3.5 426.5L156 472V826H6L3.5 426.5Z" fill="#C8C7C7" fill-opacity="0.33"/>
<path d="M222 480L328 480" stroke="black" stroke-width="3" stroke-linecap="round"/>
<path d="M66 432H172" stroke="black" stroke-width="3" stroke-linecap="round"/>
<line x1="65.8752" y1="432.008" x2="222.008" y2="480.125" stroke="black" stroke-width="3" stroke-linecap="round"/>
<line x1="65.873" y1="268.004" x2="220.004" y2="315.127" stroke="black" stroke-width="3" stroke-linecap="round"/>
<line x1="65.5" y1="268.5" x2="65.5" y2="431.879" stroke="black" stroke-width="3" stroke-linecap="round"/>
<line x1="220.5" y1="315.5" x2="220.5" y2="478.879" stroke="black" stroke-width="3" stroke-linecap="round"/>
<path d="M172 432L328 480" stroke="black" stroke-width="3" stroke-linecap="round"/>
<path d="M513.929 352.771C500.611 438.921 449.652 463.848 288.929 470.771" stroke="black" stroke-width="4" stroke-linecap="round"/>
<path d="M322.031 344.714C294.247 407.091 256.736 427.325 159.031 442.714" stroke="black" stroke-width="4"/>
<path d="M67 270L219 316V477.5L67 430.5V270Z" fill="#F3F3F3"/>
<rect x="121.977" y="369.69" width="0.584119" height="6.77577" rx="0.292059" transform="rotate(11.3029 121.977 369.69)" fill="#1E1E1E"/>
<rect x="126.445" y="370.583" width="0.584119" height="6.77577" rx="0.292059" transform="rotate(11.3029 126.445 370.583)" fill="#1E1E1E"/>
<rect x="120.649" y="376.334" width="0.584119" height="5.14024" rx="0.292059" transform="rotate(-78.6971 120.649 376.334)" fill="#1E1E1E"/>
<rect x="121.863" y="370.263" width="0.584119" height="5.14024" rx="0.292059" transform="rotate(-78.6971 121.863 370.263)" fill="#1E1E1E"/>
<rect x="121.885" y="363" width="0.584119" height="14.7198" rx="0.292059" transform="rotate(11.3029 121.885 363)" fill="#1E1E1E"/>
<rect x="154.992" y="369.617" width="0.584119" height="5.49071" rx="0.292059" transform="rotate(11.3029 154.992 369.617)" fill="#1E1E1E"/>
<rect x="121.771" y="363.573" width="0.584117" height="34.3462" rx="0.292058" transform="rotate(-78.6971 121.771 363.573)" fill="#1E1E1E"/>
<rect x="120.809" y="368.384" width="0.584119" height="34.3462" rx="0.292059" transform="rotate(-78.6971 120.809 368.384)" fill="#1E1E1E"/>
<rect x="120.26" y="377.686" width="0.584117" height="31.1919" rx="0.292059" transform="rotate(-78.6971 120.26 377.686)" fill="#1E1E1E"/>
<rect x="149.815" y="376.445" width="0.584119" height="5.02342" rx="0.292059" transform="rotate(11.3029 149.815 376.445)" fill="#1E1E1E"/>
<rect x="150.778" y="381.165" width="0.584118" height="2.57012" rx="0.292059" transform="rotate(11.3029 150.778 381.165)" fill="#1E1E1E"/>
<rect x="153.504" y="377.063" width="0.584119" height="5.02342" rx="0.292059" transform="rotate(11.3029 153.504 377.063)" fill="#1E1E1E"/>
<rect x="148.831" y="381.371" width="0.584118" height="4.32248" rx="0.292059" transform="rotate(-78.6971 148.831 381.371)" fill="#1E1E1E"/>
<path d="M153.79 376.227C153.809 376.132 153.901 376.071 153.996 376.09C154.091 376.109 154.153 376.201 154.134 376.296L153.848 377.728L153.504 377.659L153.79 376.227Z" fill="#1E1E1E"/>
<path d="M150.124 375.494C150.143 375.4 150.236 375.338 150.331 375.357C150.425 375.376 150.487 375.468 150.468 375.563L150.182 376.995L149.838 376.926L150.124 375.494Z" fill="#1E1E1E"/>
<rect x="133.319" y="372.552" width="0.584119" height="5.14024" rx="0.292059" transform="rotate(-78.6971 133.319 372.552)" fill="#1E1E1E"/>
<rect x="134.855" y="379.174" width="0.584119" height="6.77577" rx="0.292059" transform="rotate(-168.697 134.855 379.174)" fill="#1E1E1E"/>
<rect x="139.047" y="373.697" width="0.584119" height="5.14024" rx="0.292059" transform="rotate(-78.6971 139.047 373.697)" fill="#1E1E1E"/>
<rect x="137.833" y="379.769" width="0.584119" height="5.14024" rx="0.292059" transform="rotate(-78.6971 137.833 379.769)" fill="#1E1E1E"/>
<rect x="140.583" y="380.318" width="0.584119" height="6.77577" rx="0.292059" transform="rotate(-168.697 140.583 380.318)" fill="#1E1E1E"/>
<rect x="144.775" y="374.842" width="0.584118" height="4.67295" rx="0.292059" transform="rotate(-78.6971 144.775 374.842)" fill="#1E1E1E"/>
<rect x="144.202" y="377.706" width="0.584118" height="3.97201" rx="0.292059" transform="rotate(-78.6971 144.202 377.706)" fill="#1E1E1E"/>
<rect x="144.134" y="381.028" width="0.584119" height="6.77577" rx="0.292059" transform="rotate(-168.697 144.134 381.028)" fill="#1E1E1E"/>
<rect x="127.591" y="371.408" width="0.584119" height="5.14024" rx="0.292059" transform="rotate(-78.6971 127.591 371.408)" fill="#1E1E1E"/>
<rect x="126.996" y="374.386" width="0.584119" height="5.14024" rx="0.292059" transform="rotate(-78.6971 126.996 374.386)" fill="#1E1E1E"/>
<rect x="126.377" y="377.479" width="0.584119" height="5.14024" rx="0.292059" transform="rotate(-78.6971 126.377 377.479)" fill="#1E1E1E"/>
<rect x="127.568" y="374.501" width="0.584119" height="3.62154" rx="0.292059" transform="rotate(-168.697 127.568 374.501)" fill="#1E1E1E"/>
<rect x="131.418" y="378.487" width="0.584118" height="3.73836" rx="0.292059" transform="rotate(-168.697 131.418 378.487)" fill="#1E1E1E"/>
<path d="M290.5 471C279.647 470.934 275.689 472.077 275.387 475.449" stroke="black" stroke-width="3" stroke-linecap="round"/>
<path d="M289.065 470.499C275.383 467.584 270.3 467.769 266.065 471.499" stroke="black" stroke-width="3" stroke-linecap="round"/>
<path d="M288.706 470.471C279.633 464.465 274.147 463.411 263.706 465.471" stroke="black" stroke-width="3" stroke-linecap="round"/>
<g clip-path="url(#clip0_7_139)">
<path d="M139.033 170.852L126.822 165.558L127.876 163.128L137.657 167.369L146.12 147.847L148.549 148.898L139.033 170.852ZM120.468 148.98L134.529 129.203L96.6854 144.157L120.468 148.98ZM121.552 151.725L96.788 146.633L106.995 172.463C107.169 172.904 107.454 173.21 107.85 173.382C108.246 173.554 108.665 173.552 109.108 173.377L120.876 168.727L124.308 170.215L110.08 175.837C108.947 176.285 107.851 176.279 106.794 175.821C105.737 175.363 104.984 174.567 104.534 173.432L94.0666 146.944C93.6188 145.81 93.6249 144.715 94.0848 143.657C94.5447 142.6 95.3393 141.847 96.4686 141.399L132.802 127.041C133.934 126.594 135.028 126.601 136.086 127.061C137.144 127.52 137.897 128.316 138.346 129.447L143.134 141.565L141.646 144.997L136.147 131.081L121.552 151.725Z" fill="black"/>
</g>
<g clip-path="url(#clip1_7_139)">
<path d="M185.422 178.899L169.652 184.614C164.563 186.458 161.877 191.922 163.652 196.819L169.151 211.994C170.926 216.891 176.489 219.365 181.578 217.521L197.347 211.806C202.436 209.962 205.123 204.498 203.348 199.601L197.849 184.426C196.074 179.529 190.511 177.054 185.422 178.899Z" fill="white"/>
<path d="M185.422 178.899L169.652 184.614C164.563 186.458 161.877 191.922 163.652 196.819L169.151 211.994C170.926 216.891 176.489 219.365 181.578 217.521L197.347 211.806C202.436 209.962 205.123 204.498 203.348 199.601L197.849 184.426C196.074 179.529 190.511 177.054 185.422 178.899Z" stroke="black" stroke-width="2" stroke-miterlimit="10"/>
<path d="M186.379 206.153C190.938 204.501 193.344 199.606 191.755 195.219C190.165 190.832 185.18 188.614 180.621 190.267C176.063 191.919 173.656 196.814 175.245 201.201C176.835 205.588 181.82 207.805 186.379 206.153Z" stroke="black" stroke-width="2" stroke-miterlimit="10"/>
<path d="M190.645 186.634C191.621 186.28 192.137 185.231 191.796 184.291C191.456 183.351 190.388 182.876 189.411 183.23C188.434 183.584 187.918 184.633 188.259 185.573C188.6 186.513 189.668 186.988 190.645 186.634Z" fill="black"/>
</g>
<g clip-path="url(#clip2_7_139)">
<path d="M90.2489 244.19L82.5259 229.599M109.5 209.985L118.326 226.659C119.79 229.423 120.095 232.655 119.175 235.644C118.255 238.633 116.185 241.134 113.421 242.598L96.7464 251.424C93.9824 252.887 90.7504 253.192 87.7614 252.272C84.7725 251.352 82.2713 249.283 80.8083 246.519L71.9819 229.844C70.5189 227.08 70.2137 223.848 71.1336 220.859C72.0536 217.87 74.1232 215.369 76.8872 213.906L93.5619 205.079C96.3259 203.616 99.5579 203.311 102.547 204.231C105.536 205.151 108.037 207.221 109.5 209.985Z" stroke="black" stroke-width="1.5" stroke-linecap="round" stroke-linejoin="round"/>
<path d="M98.5863 239.777L95.0006 233.003M95.0006 233.003L90.8633 225.186M95.0006 233.003C90.8633 225.186 103.369 218.566 107.507 226.383L111.092 233.157M79.227 223.367L79.2357 223.333" stroke="black" stroke-width="1.5" stroke-linecap="round" stroke-linejoin="round"/>
</g>
<defs>
<clipPath id="clip0_7_139">
<rect width="63.4809" height="63.4809" fill="white" transform="translate(80.2557 133.585) rotate(-21.5614)"/>
</clipPath>
<clipPath id="clip1_7_139">
<rect width="55.9921" height="53.8813" fill="white" transform="translate(148 182.42) rotate(-19.9204)"/>
</clipPath>
<clipPath id="clip2_7_139">
<rect width="56.6" height="56.6" fill="white" transform="translate(56.9025 216.479) rotate(-27.8933)"/>
</clipPath>
</defs>
</svg>
