<svg width="118" height="110" viewBox="0 0 118 110" fill="none" xmlns="http://www.w3.org/2000/svg">
<path d="M48.71 23C40.1329 23 31.97 23 24.9951 23C13.9494 23 5 31.9543 5 43V85C5 96.0457 13.9543 105 25 105H78C89.0457 105 98 96.0457 98 85V60.5" stroke="#9C9C9C" stroke-width="9" stroke-linecap="round"/>
<path d="M34.6667 66.369L98.569 6.70149C98.7708 6.51302 99.0872 6.52387 99.2757 6.7257L110.878 19.1512C111.066 19.353 111.055 19.6694 110.854 19.8579L47.2064 79.2872C47.1333 79.3554 47.0415 79.4002 46.9427 79.4157L29.5693 82.1433C29.4416 82.1634 29.3651 82.1448 29.3115 82.1233C29.2455 82.0968 29.1702 82.0459 29.1049 81.9661C29.0397 81.8864 29.0045 81.8026 28.9916 81.7327C28.9811 81.6758 28.978 81.5972 29.0228 81.4759L34.539 66.5611C34.566 66.488 34.6097 66.4222 34.6667 66.369Z" stroke="#9C9C9C" stroke-width="9"/>
<path d="M101.5 32.4316C93.9 24.8316 87.3333 18.2649 85 15.9316" stroke="#9C9C9C" stroke-width="9"/>
</svg>
