<svg width="51" height="44" viewBox="0 0 51 44" fill="none" xmlns="http://www.w3.org/2000/svg">
<path d="M33.4339 43.0632L24.0228 33.6522L25.8955 31.7795L33.4339 39.3179L48.4788 24.2729L50.3515 26.1429L33.4339 43.0632ZM24.2053 15.8987L44.551 2.67352H3.8597L24.2053 15.8987ZM24.2053 18.8506L3.04503 5.01438V32.7873C3.04503 33.2616 3.19756 33.6513 3.50262 33.9564C3.80768 34.2614 4.19827 34.414 4.67437 34.414H17.3282L19.9733 37.059H4.67437C3.45589 37.059 2.43932 36.6517 1.62465 35.837C0.809975 35.0223 0.401757 34.0049 0.399994 32.7846V4.30286C0.399994 3.08438 0.808211 2.0678 1.62465 1.25313C2.44108 0.438461 3.45677 0.0302439 4.67173 0.0284805H43.7389C44.9556 0.0284805 45.9713 0.436697 46.786 1.25313C47.6007 2.06957 48.0089 3.08614 48.0107 4.30286V17.3323L45.3656 19.9774V5.01438L24.2053 18.8506Z" fill="black"/>
</svg>
