<svg width="67" height="64" viewBox="0 0 67 64" fill="none" xmlns="http://www.w3.org/2000/svg">
<path d="M43.536 11.2124L23.464 11.2124C16.9873 11.2124 11.738 16.2276 11.738 22.4142L11.738 41.5858C11.738 47.7724 16.9882 52.7876 23.4649 52.7876H43.5351C50.0118 52.7876 55.262 47.7724 55.262 41.5858V22.4142C55.262 16.2276 50.0127 11.2124 43.536 11.2124Z" fill="white"/>
<path d="M43.536 11.2124L23.464 11.2124C16.9873 11.2124 11.738 16.2276 11.738 22.4142L11.738 41.5858C11.738 47.7724 16.9882 52.7876 23.4649 52.7876H43.5351C50.0118 52.7876 55.262 47.7724 55.262 41.5858V22.4142C55.262 16.2276 50.0127 11.2124 43.536 11.2124Z" stroke="black" stroke-width="2" stroke-miterlimit="10"/>
<path d="M33.5 42.0356C39.3023 42.0356 44.006 37.5425 44.006 32C44.006 26.4575 39.3023 21.9644 33.5 21.9644C27.6977 21.9644 22.994 26.4575 22.994 32C22.994 37.5425 27.6977 42.0356 33.5 42.0356Z" stroke="black" stroke-width="2" stroke-miterlimit="10"/>
<path d="M46.257 21.9644C47.5002 21.9644 48.508 21.0018 48.508 19.8142C48.508 18.6267 47.5002 17.664 46.257 17.664C45.0138 17.664 44.006 18.6267 44.006 19.8142C44.006 21.0018 45.0138 21.9644 46.257 21.9644Z" fill="black"/>
</svg>
