<svg width="58" height="58" viewBox="0 0 58 58" fill="none" xmlns="http://www.w3.org/2000/svg">
<path d="M17.46 41.0433V24.535M50.4766 19.8183V38.685C50.4766 41.8123 49.2343 44.8116 47.0229 47.023C44.8116 49.2343 41.8123 50.4767 38.685 50.4767H19.8183C16.6909 50.4767 13.6917 49.2343 11.4803 47.023C9.26894 44.8116 8.02661 41.8123 8.02661 38.685V19.8183C8.02661 16.691 9.26894 13.6917 11.4803 11.4803C13.6917 9.26896 16.6909 8.02663 19.8183 8.02663H38.685C41.8123 8.02663 44.8116 9.26896 47.0229 11.4803C49.2343 13.6917 50.4766 16.691 50.4766 19.8183Z" stroke="black" stroke-width="1.5" stroke-linecap="round" stroke-linejoin="round"/>
<path d="M26.8933 41.0433V33.3787M26.8933 33.3787V24.535M26.8933 33.3787C26.8933 24.535 41.0433 24.535 41.0433 33.3787V41.0433M17.46 17.4835L17.4835 17.4576" stroke="black" stroke-width="1.5" stroke-linecap="round" stroke-linejoin="round"/>
</svg>
