<svg width="623" height="866" viewBox="0 0 623 866" fill="none" xmlns="http://www.w3.org/2000/svg">
<path d="M582.586 340.667C596.787 381.756 595.522 411.92 583.078 434.515C570.601 457.17 546.567 472.812 513.893 484.105C481.244 495.389 443.213 500.434 411.523 492.462C395.712 488.485 381.54 481.285 370.357 470.064C359.184 458.854 350.872 443.509 346.956 423.03C339.013 381.509 339.91 339.489 350.857 305.132C361.796 270.803 382.68 244.328 414.651 233.279C478.712 211.138 554.192 258.515 582.586 340.667Z" fill="#E0E0E0" stroke="black" stroke-width="5"/>
<path d="M521.5 141.5C521.5 218.371 461.853 280.5 388.5 280.5C315.147 280.5 255.5 218.371 255.5 141.5C255.5 64.6292 315.147 2.5 388.5 2.5C461.853 2.5 521.5 64.6292 521.5 141.5Z" fill="white" stroke="black" stroke-width="5"/>
<path fill-rule="evenodd" clip-rule="evenodd" d="M487.499 192.787C471.238 209.91 443.973 226.558 411.013 237.808C362.714 254.295 317.005 254.133 296.578 239.367C316.916 255.273 362.882 263.887 410.723 247.557C447.465 235.015 474.216 213.119 487.499 192.787ZM288.438 230.533C287.732 229.283 287.143 227.976 286.678 226.613C286.138 225.031 285.776 223.409 285.585 221.753C285.713 223.395 286.041 225.001 286.574 226.565C287.032 227.905 287.656 229.23 288.438 230.533Z" fill="black"/>
<ellipse cx="291.901" cy="199.789" rx="4" ry="13.5" transform="rotate(-12.7187 291.901 199.789)" fill="black"/>
<ellipse cx="309.447" cy="198.078" rx="4" ry="13.5" transform="rotate(-15.4264 309.447 198.078)" fill="black"/>
<path d="M413 493C383.868 615.579 386.52 710.236 413 816.5" stroke="black" stroke-width="5" stroke-linecap="round"/>
<path d="M316.49 834.758C356.584 818.334 421.367 815.541 459.09 824.208" stroke="black" stroke-width="5"/>
<path d="M536 455.008C499.346 597.025 542.981 893.57 536 846.047" stroke="black" stroke-width="5" stroke-linecap="round"/>
<path d="M436.021 858.957C477.57 846.261 542.304 850.153 578.958 863" stroke="black" stroke-width="5"/>
<rect x="170.344" y="274.888" width="42.5677" height="89.8971" rx="4.5" transform="rotate(-30.2867 170.344 274.888)" stroke="black" stroke-width="5"/>
<line x1="196.132" y1="257.694" x2="245.132" y2="337.694" stroke="black" stroke-width="5"/>
<path d="M342 361C333.169 430.365 259.422 396.997 224 350" stroke="black" stroke-width="5" stroke-linecap="round"/>
<path d="M191 319.153C190.724 306.8 193.005 301.582 193.722 291.167" stroke="black" stroke-width="4" stroke-linecap="round"/>
<path d="M192 322.995L207 289" stroke="black" stroke-width="4" stroke-linecap="round"/>
<path d="M194 324.435L222 289" stroke="black" stroke-width="4" stroke-linecap="round"/>
<path d="M191 317.5C190.931 330.684 198.901 331.521 208.225 341.258" stroke="black" stroke-width="4" stroke-linecap="round"/>
<ellipse cx="196.523" cy="326.871" rx="2.5" ry="8.17289" transform="rotate(-33.2995 196.523 326.871)" fill="black"/>
<rect x="2.5" y="98.5" width="219" height="63" rx="18.5" stroke="black" stroke-width="5"/>
<path d="M101.361 162.153C162 191 136 223 164.166 244.249" stroke="black" stroke-width="4" stroke-linecap="round"/>
<path d="M124.118 161.944C163.678 190 148 202.5 163.678 243.601" stroke="black" stroke-width="4" stroke-linecap="round"/>
<path d="M99.0001 156L123.353 159C120.168 160.778 123.5 164 123.5 164H109.5C106.444 161.396 96.481 156.94 99.0001 156Z" fill="white"/>
<path d="M54.75 117.25H30.25C27.9948 117.25 26.1667 119.078 26.1667 121.333V137.667C26.1667 139.922 27.9948 141.75 30.25 141.75H54.75C57.0052 141.75 58.8333 139.922 58.8333 137.667V121.333C58.8333 119.078 57.0052 117.25 54.75 117.25Z" stroke="black" stroke-width="2"/>
<path d="M26.1667 123.375L40.6747 130.629C41.2415 130.912 41.8664 131.06 42.5 131.06C43.1336 131.06 43.7585 130.912 44.3252 130.629L58.8333 123.375" stroke="black" stroke-width="2"/>
<path d="M71.7614 133.295C71.0114 133.295 70.3674 133.03 69.8295 132.5C69.2992 131.962 69.0341 131.318 69.0341 130.568C69.0341 129.826 69.2992 129.189 69.8295 128.659C70.3674 128.129 71.0114 127.864 71.7614 127.864C72.4886 127.864 73.125 128.129 73.6705 128.659C74.2159 129.189 74.4886 129.826 74.4886 130.568C74.4886 131.068 74.3598 131.527 74.1023 131.943C73.8523 132.352 73.5227 132.682 73.1136 132.932C72.7045 133.174 72.2538 133.295 71.7614 133.295ZM87.6051 133.295C86.8551 133.295 86.2112 133.03 85.6733 132.5C85.143 131.962 84.8778 131.318 84.8778 130.568C84.8778 129.826 85.143 129.189 85.6733 128.659C86.2112 128.129 86.8551 127.864 87.6051 127.864C88.3324 127.864 88.9688 128.129 89.5142 128.659C90.0597 129.189 90.3324 129.826 90.3324 130.568C90.3324 131.068 90.2036 131.527 89.946 131.943C89.696 132.352 89.3665 132.682 88.9574 132.932C88.5483 133.174 88.0975 133.295 87.6051 133.295ZM103.449 133.295C102.699 133.295 102.055 133.03 101.517 132.5C100.987 131.962 100.722 131.318 100.722 130.568C100.722 129.826 100.987 129.189 101.517 128.659C102.055 128.129 102.699 127.864 103.449 127.864C104.176 127.864 104.813 128.129 105.358 128.659C105.903 129.189 106.176 129.826 106.176 130.568C106.176 131.068 106.047 131.527 105.79 131.943C105.54 132.352 105.21 132.682 104.801 132.932C104.392 133.174 103.941 133.295 103.449 133.295ZM119.293 133.295C118.543 133.295 117.899 133.03 117.361 132.5C116.83 131.962 116.565 131.318 116.565 130.568C116.565 129.826 116.83 129.189 117.361 128.659C117.899 128.129 118.543 127.864 119.293 127.864C120.02 127.864 120.656 128.129 121.202 128.659C121.747 129.189 122.02 129.826 122.02 130.568C122.02 131.068 121.891 131.527 121.634 131.943C121.384 132.352 121.054 132.682 120.645 132.932C120.236 133.174 119.785 133.295 119.293 133.295ZM135.136 133.295C134.386 133.295 133.742 133.03 133.205 132.5C132.674 131.962 132.409 131.318 132.409 130.568C132.409 129.826 132.674 129.189 133.205 128.659C133.742 128.129 134.386 127.864 135.136 127.864C135.864 127.864 136.5 128.129 137.045 128.659C137.591 129.189 137.864 129.826 137.864 130.568C137.864 131.068 137.735 131.527 137.477 131.943C137.227 132.352 136.898 132.682 136.489 132.932C136.08 133.174 135.629 133.295 135.136 133.295ZM150.98 133.295C150.23 133.295 149.586 133.03 149.048 132.5C148.518 131.962 148.253 131.318 148.253 130.568C148.253 129.826 148.518 129.189 149.048 128.659C149.586 128.129 150.23 127.864 150.98 127.864C151.707 127.864 152.344 128.129 152.889 128.659C153.435 129.189 153.707 129.826 153.707 130.568C153.707 131.068 153.579 131.527 153.321 131.943C153.071 132.352 152.741 132.682 152.332 132.932C151.923 133.174 151.473 133.295 150.98 133.295ZM166.824 133.295C166.074 133.295 165.43 133.03 164.892 132.5C164.362 131.962 164.097 131.318 164.097 130.568C164.097 129.826 164.362 129.189 164.892 128.659C165.43 128.129 166.074 127.864 166.824 127.864C167.551 127.864 168.188 128.129 168.733 128.659C169.278 129.189 169.551 129.826 169.551 130.568C169.551 131.068 169.422 131.527 169.165 131.943C168.915 132.352 168.585 132.682 168.176 132.932C167.767 133.174 167.316 133.295 166.824 133.295ZM182.668 133.295C181.918 133.295 181.274 133.03 180.736 132.5C180.205 131.962 179.94 131.318 179.94 130.568C179.94 129.826 180.205 129.189 180.736 128.659C181.274 128.129 181.918 127.864 182.668 127.864C183.395 127.864 184.031 128.129 184.577 128.659C185.122 129.189 185.395 129.826 185.395 130.568C185.395 131.068 185.266 131.527 185.009 131.943C184.759 132.352 184.429 132.682 184.02 132.932C183.611 133.174 183.16 133.295 182.668 133.295Z" fill="black"/>
<path d="M123.681 172.668L107.036 161.58L110.778 155.962L115 157.5L127.423 167.049L123.681 172.668Z" fill="white"/>
<path d="M564.384 525.706C569.868 421.324 549.617 346.452 504 267.756" stroke="black" stroke-width="5" stroke-linecap="round"/>
<path d="M565.53 525C587.341 539.337 591.048 552.39 599.853 529.527" stroke="black" stroke-width="4" stroke-linecap="round"/>
<path d="M566.828 527C582.051 553.437 590.557 567.709 603.657 555.191" stroke="black" stroke-width="4" stroke-linecap="round"/>
<path d="M534 546.557C541.917 532.586 548.504 528.405 563.224 526" stroke="black" stroke-width="4" stroke-linecap="round"/>
<path d="M564.299 526.672C565.929 563.309 567.829 582.111 589.36 583.645" stroke="black" stroke-width="4" stroke-linecap="round"/>
</svg>
