<svg width="54" height="54" viewBox="0 0 54 54" fill="none" xmlns="http://www.w3.org/2000/svg">
<path d="M19.125 49.7587C19.125 49.7587 25.155 24.6487 25.7513 23.0737C19.9913 23.625 21.8363 37.125 28.3613 38.5987C33.885 39.8925 40.005 33.4912 39.915 26.3925C39.825 19.2937 35.6513 15.75 30.375 14.2762C25.0988 12.8025 16.7063 14.625 14.4788 22.005C13.6806 24.246 13.5757 26.6755 14.1777 28.977C14.7796 31.2785 16.0606 33.3455 17.8538 34.9087" stroke="black" stroke-linecap="round" stroke-linejoin="round"/>
<path d="M27 2.8125C22.2162 2.8125 17.5398 4.23107 13.5621 6.88883C9.58453 9.54659 6.48436 13.3242 4.65367 17.7438C2.82297 22.1635 2.34398 27.0268 3.27726 31.7187C4.21054 36.4107 6.51417 40.7205 9.89686 44.1031C13.2795 47.4858 17.5893 49.7895 22.2813 50.7227C26.9732 51.656 31.8365 51.177 36.2562 49.3463C40.6758 47.5156 44.4534 44.4155 47.1112 40.4379C49.7689 36.4602 51.1875 31.7838 51.1875 27C51.1845 20.586 48.6353 14.4355 44.0999 9.90015C39.5645 5.36476 33.414 2.81548 27 2.8125Z" stroke="black" stroke-linecap="round" stroke-linejoin="round"/>
</svg>
