<svg width="294" height="126" viewBox="0 0 294 126" fill="none" xmlns="http://www.w3.org/2000/svg">
<rect x="12" y="56" width="5" height="58" rx="2.5" fill="#1E1E1E"/>
<rect x="51" y="56" width="5" height="58" rx="2.5" fill="#1E1E1E"/>
<rect x="12" y="114" width="5" height="44" rx="2.5" transform="rotate(-90 12 114)" fill="#1E1E1E"/>
<rect x="12" y="61" width="5" height="44" rx="2.5" transform="rotate(-90 12 61)" fill="#1E1E1E"/>
<rect width="5" height="126" rx="2.5" fill="#1E1E1E"/>
<rect x="289" width="5" height="47" rx="2.5" fill="#1E1E1E"/>
<rect y="5" width="4.99999" height="294" rx="2.49999" transform="rotate(-90 0 5)" fill="#1E1E1E"/>
<rect y="47" width="5" height="294" rx="2.5" transform="rotate(-90 0 47)" fill="#1E1E1E"/>
<rect x="11" y="126" width="4.99999" height="267" rx="2.49999" transform="rotate(-90 11 126)" fill="#1E1E1E"/>
<rect x="257" y="66" width="5" height="43" rx="2.5" fill="#1E1E1E"/>
<rect x="273" y="104" width="5" height="22" rx="2.5" fill="#1E1E1E"/>
<rect x="289" y="65" width="5" height="43" rx="2.5" fill="#1E1E1E"/>
<rect x="257" y="109" width="5" height="37" rx="2.5" transform="rotate(-90 257 109)" fill="#1E1E1E"/>
<path d="M290 57.5C290 56.6716 290.672 56 291.5 56V56C292.328 56 293 56.6716 293 57.5V70H290V57.5Z" fill="#1E1E1E"/>
<path d="M258 57.5C258 56.6716 258.672 56 259.5 56V56C260.328 56 261 56.6716 261 57.5V70H258V57.5Z" fill="#1E1E1E"/>
<rect x="112" y="61" width="5" height="44" rx="2.5" transform="rotate(-90 112 61)" fill="#1E1E1E"/>
<rect x="136" y="114" width="5" height="58" rx="2.5" transform="rotate(180 136 114)" fill="#1E1E1E"/>
<rect x="162" y="61" width="5" height="44" rx="2.5" transform="rotate(-90 162 61)" fill="#1E1E1E"/>
<rect x="162" y="114" width="5" height="44" rx="2.5" transform="rotate(-90 162 114)" fill="#1E1E1E"/>
<rect x="186" y="114" width="5" height="58" rx="2.5" transform="rotate(180 186 114)" fill="#1E1E1E"/>
<rect x="212" y="61" width="5" height="40" rx="2.5" transform="rotate(-90 212 61)" fill="#1E1E1E"/>
<rect x="212" y="86" width="5" height="34" rx="2.5" transform="rotate(-90 212 86)" fill="#1E1E1E"/>
<rect x="217" y="114" width="5" height="58" rx="2.5" transform="rotate(180 217 114)" fill="#1E1E1E"/>
<rect x="62" y="61" width="5" height="44" rx="2.5" transform="rotate(-90 62 61)" fill="#1E1E1E"/>
<rect x="62" y="87" width="5" height="44" rx="2.5" transform="rotate(-90 62 87)" fill="#1E1E1E"/>
<rect x="62" y="114" width="5" height="44" rx="2.5" transform="rotate(-90 62 114)" fill="#1E1E1E"/>
<rect x="67" y="87" width="5" height="31" rx="2.5" transform="rotate(180 67 87)" fill="#1E1E1E"/>
<rect x="106" y="114" width="5" height="32" rx="2.5" transform="rotate(180 106 114)" fill="#1E1E1E"/>
</svg>
